<svg viewBox="0 0 48 28" fill="none" xmlns="http://www.w3.org/2000/svg">
  <!-- Archivero/mueble con cajones -->
  <path d="M35 14H13M35 14C35.8 14 36.6 14.2 37.2 14.8C37.8 15.4 38 16.2 38 17V21C38 21.8 37.8 22.6 37.2 23.2C36.6 23.8 35.8 24 35 24H13C12.2 24 11.4 23.8 10.8 23.2C10.2 22.6 10 21.8 10 21V17C10 16.2 10.2 15.4 10.8 14.8C11.4 14.2 12.2 14 13 14M35 14V12C35 11.2 34.8 10.4 34.2 9.8C33.6 9.2 32.8 9 32 9M13 14V12C13 11.2 13.2 10.4 13.8 9.8C14.4 9.2 15.2 9 16 9M32 9V7C32 6.2 31.8 5.4 31.2 4.8C30.6 4.2 29.8 4 29 4H19C18.2 4 17.4 4.2 16.8 4.8C16.2 5.4 16 6.2 16 7V9M32 9H16" stroke="currentColor" stroke-width="2" stroke-linecap="round" stroke-linejoin="round"/>
</svg>