<svg viewBox="0 0 48 28" fill="none" xmlns="http://www.w3.org/2000/svg">
  <!-- Estructura del almacén -->
  <!-- Paredes exteriores -->
  <rect x="1" y="2" width="46" height="24" fill="none" stroke="currentColor" stroke-width="2" stroke-linecap="round" stroke-linejoin="round"/>
  
  <!-- Estanterías verticales (racks) -->
  <!-- Rack izquierdo -->
  <rect x="4" y="4" width="3" height="20" fill="currentColor" opacity="0.6"/>
  <rect x="7" y="4" width="3" height="20" fill="currentColor" opacity="0.6"/>
  <rect x="10" y="4" width="3" height="20" fill="currentColor" opacity="0.6"/>
  
  <!-- Rack derecho -->
  <rect x="35" y="4" width="3" height="20" fill="currentColor" opacity="0.6"/>
  <rect x="38" y="4" width="3" height="20" fill="currentColor" opacity="0.6"/>
  <rect x="41" y="4" width="3" height="20" fill="currentColor" opacity="0.6"/>
  
  <!-- Estantes horizontales -->
  <!-- Estantes rack izquierdo -->
  <line x1="4" y1="8" x2="13" y2="8" stroke="currentColor" stroke-width="1.5" opacity="0.4"/>
  <line x1="4" y1="12" x2="13" y2="12" stroke="currentColor" stroke-width="1.5" opacity="0.4"/>
  <line x1="4" y1="16" x2="13" y2="16" stroke="currentColor" stroke-width="1.5" opacity="0.4"/>
  <line x1="4" y1="20" x2="13" y2="20" stroke="currentColor" stroke-width="1.5" opacity="0.4"/>
  
  <!-- Estantes rack derecho -->
  <line x1="35" y1="8" x2="44" y2="8" stroke="currentColor" stroke-width="1.5" opacity="0.4"/>
  <line x1="35" y1="12" x2="44" y2="12" stroke="currentColor" stroke-width="1.5" opacity="0.4"/>
  <line x1="35" y1="16" x2="44" y2="16" stroke="currentColor" stroke-width="1.5" opacity="0.4"/>
  <line x1="35" y1="20" x2="44" y2="20" stroke="currentColor" stroke-width="1.5" opacity="0.4"/>
  
  <!-- Pasillo central -->
  <rect x="18" y="4" width="12" height="20" fill="none" stroke="currentColor" stroke-width="1.5" stroke-dasharray="3,3" opacity="0.6"/>
  
  <!-- Puerta de entrada -->
  <path d="M1 14 L7 14" stroke="currentColor" stroke-width="3" stroke-linecap="round"/>
  
  <!-- Puerta de salida -->
  <path d="M41 14 L47 14" stroke="currentColor" stroke-width="3" stroke-linecap="round"/>

</svg>